<?xml version="1.0" encoding="utf-8"?>
<svg version="1.1" id="Layer_1" xmlns="http://www.w3.org/2000/svg" xmlns:xlink="http://www.w3.org/1999/xlink" x="0px" y="0px"
	 viewBox="0 0 1208.827 1657.461" enable-background="new 0 0 1208.827 1657.461" xml:space="preserve">
<g>
	<path d="M1104.969,881.484c5.141,10.449,20.784,20.829,27.443,54.712c3.912,19.901,8.554,35.033,7.459,48.425
		c-1.265,15.467-37.713,10.351-34.955,22.717c7.212,32.361,16.01,3.198,17.164,76.438c1.417,89.923-12.661,129.812,16.783,218.87
		c7.708,23.314,16.062,32.552-1.272,44.838c-179.205,127.017-370.669-95.9-400.092-46.973
		c-42.842,71.241-57.818,173.832-57.818,173.832c-11.414-23.282,8.741-97.199,8.714-119.019
		c-0.026-21.288,31.538-86.531,20.343-94.766c-16.905-12.436-111.085-100.119-115.352-105.998
		c-33.187-45.726-34.374-49.521-29.029-90.029c0,0,42.473-146.85,48.671-204.802c28.038-262.161,40.376-250.781-49.539-275.55
		c-14.137-3.894-6.089-0.737-5.341,17.763c-7.698-6.705-9.6-11.254-20.332-26.291c-36.439-51.053-100.911-56.642-129.467,5.014
		c-61.171,132.076,94.29,319.743,170.329,242.543c0.261,12.48,0.911,12.19-0.97,13.904c-53.563,48.825-109.015,4.64-173.555-57.651
		c-28.822-27.817-24.381-37.716-31.285-21.387c-0.86,2.034-75.424,200.836-125.926,262.614
		c-16.06-188.35-63.176-188.435-116.93-427.262c-5.984-26.586-28.949-136.232-16.229-167.698
		c15.498-38.339-13.07-58.253,10.243-124.864c27.448-78.425,46.103-114.098,123.116-160.975
		c116.626-70.989,283.136-110.705,335.558-99.32c29.543,6.416,27.543-3.873,99.681-9.473
		c208.319-16.17,375.013,53.792,430.603,114.691c43.968,48.169-52.924,167.459-46.858,182.796
		c0.803,2.03,76.701,239.88,58.18,264.427c-27.942,37.033-63.671,12.593,57.61,208.692c5.283,8.541,8.201,15.404,3.846,24.661
		C1150.826,900.632,1150.721,863.783,1104.969,881.484z M1012.373,800.693c-2.323,24.549-4.33,34.771,20.657,34.142
		c107.832-2.718,88.944,5.066,107.664,18.514c7.332,5.267,24.501-13.38,29.101-26.098c11.492-31.772-129.909-143.315-65.19-249.148
		c18.188-29.742-5.535-52.546-38.085-182.82c-10.65-42.624-8.731-54.597-28.15-64.905
		c-109.582-58.167-234.888-65.107-242.659-59.355c0.733,1.998,2.405,2.84,3.799,3.864c13.903,10.216,19.81,12.224,30.562,26.073
		c62.842,80.943,63.18,84.91,36.233,135.193c-17.169,32.039-107.191,57.187-119.703,93.361
		c-2.363,6.831-28.358,96.979-23.065,198.256c3.444,65.902,168.544,155.27,176.746,206.508c3.264,20.39,2.248,57.907,16.857,74.946
		c6.092-3.947,26.791-124.773,82.786-138.074c21.899-5.202,25.602-5.199,29.277-8.864c-21.348-21.597-30.323-26.159-28.394-42.532
		C1001.734,811.925,1004.882,805.211,1012.373,800.693z M971.486,153.371c2.03-1.332,2.21-22.028-13.605-38.235
		c-25.458-26.09-114.346-56.44-120.698-53.621c0.214,0.22,58.365,26.874,82.959,52.382c22.942,23.795,23.197,44.857,28.25,89.078
		c14-15.541-9.354-82.611-8.859-84.641C952.067,113.364,969.452,152.278,971.486,153.371z M725.729,62.531
		c117.974,38.541,140.092,118.877,140.092,118.877C881.698,142.888,785.747,56.336,725.729,62.531z M740.474,119.522
		c-5.849-11.875-79.829-57.464-152.724-58.293c0.786,1.431,0.359,1.524,2.617,2.098C639.181,75.739,740.474,119.522,740.474,119.522
		z M1043.774,245.612c2.031-0.775,46.482-72.475,9.648-89.266c-0.507,1.894,0.765,5.021,1.5,6.838
		C1067.122,193.318,1045.586,228.435,1043.774,245.612z"/>
	<path d="M217.196,1076.722c0,29.742,6.418,11.751,95.239,70.232c219.967,144.831,259.078,287.952,347.466,407.359
		c19.041,25.724,55.022,59.947,60.562,74.1c-2.017,2.149-18.416-7.281-20.986-8.753
		c-223.486-128.037-343.118-382.864-588.107-405.03c-10.161-0.92,10.939-15.557,25.885-50.578
		c34.596-81.063,44.244-85.76,58.127-87.144C202.487,1076.199,209.625,1076.332,217.196,1076.722z"/>
	<path d="M20.954,1301.31c10.535-10.806,80.674-38.334,88.743-38.391c139.99-0.988,402.73,268.087,402.43,280.202
		c-2.337-0.327-4.187-1.612-6.084-2.699c-62.844-36.002-158.863-130.543-310.996-195.844
		c-67.101-28.802-33.234-17.489-162.835-40.969C28.737,1302.981,25.29,1302.201,20.954,1301.31z"/>
	<path d="M417.505,648.387c-7.021-53.921,34.919-112.452,79.104-76.607c36.825,29.874,31.828,56.389,28.172,110.301
		c-0.13,1.919,0.22,3.588,1.897,4.689c7.488,4.913,9.5,12.663,9.801,20.723c1.002,26.781,30.766,16.52,29.719,45.883
		c-1.284,36.042-98.107-11.367-105.428-57.669c-3.99-25.233,27.117-50.544,37.6-63.721c17.775-22.345-51.837-113.723-79.414,13.616
		C418.788,646.376,418.855,647.235,417.505,648.387z"/>
	<path d="M449.417,741.607c0.991,0.39,80.122,48.538,81.523,50.69C522.665,801.791,462.485,775.369,449.417,741.607z"/>
	<path d="M1091.861,558.475c4.173,19.462-26.008,50.08-55.746,24.783c-50.371-42.85-146.663-4.734-156.118-9.984
		c3.09-5.649,69.878-39.512,83.389-45.989c13.585-6.512,25.32-3.331,87.281,13.975c17.493,4.886,23.509,4.981,24.834,14.148
		c1.417,9.81,2.291,9.081,11.636,5.103C1088.583,559.895,1089.826,558.77,1091.861,558.475z"/>
	<path d="M1005.463,659.347c-2.512-2.348-1.155-7.896-16.121-12.688c-29.956-9.592-59.241-32.514-61.24-35.337
		c13.317-20.749,124.161-29.938,112.16-9.028c-5.993,10.442-44.22,23.696-32.924,41.19
		C1010.965,649.101,1009.59,654.19,1005.463,659.347z M947.77,617.414c41.321,26.676,34.079,18.597,36.482-9.071
		C984.84,601.571,953.936,608.541,947.77,617.414z"/>
</g>
</svg>
